<svg width="479" height="150" viewBox="0 0 479 150" fill="none" xmlns="http://www.w3.org/2000/svg">
<g clip-path="url(#clip0_6_142)">
<path d="M59.8832 53.5227V69.5455H98.5507C97.5241 78.4091 94.4444 85.2273 89.6537 89.6591C84.1787 95.1136 75.2817 101.25 59.8832 101.25C36.2721 101.25 17.7939 82.1591 17.7939 58.6364C17.7939 35.1136 35.9299 16.0227 59.8832 16.0227C72.5442 16.0227 82.1255 21.1364 88.9693 27.6136L100.262 16.3636C90.6803 7.15909 77.6771 0 59.8832 0C27.3752 0 0 26.25 0 58.6364C0 91.0227 27.3752 117.273 59.8832 117.273C77.3349 117.273 90.6803 111.477 100.946 100.909C111.554 90.3409 114.976 75.3409 114.976 63.4091C114.976 59.6591 114.634 56.25 114.291 53.5227H59.8832Z" fill="#4285F4"/>
<path d="M162.882 40.2273C142.009 40.2273 124.557 56.25 124.557 78.0682C124.557 99.8864 141.667 115.909 162.882 115.909C184.098 115.909 201.208 100.227 201.208 78.4091C201.208 56.25 184.098 40.2273 162.882 40.2273ZM162.882 101.25C151.248 101.25 141.324 91.7046 141.324 78.4091C141.324 64.7727 151.248 55.5682 162.882 55.5682C174.517 55.5682 184.44 64.7727 184.44 78.4091C184.44 91.7046 174.517 101.25 162.882 101.25Z" fill="#EA4335"/>
<path d="M350.06 48.75H349.376C345.612 44.3182 338.426 40.2273 329.186 40.2273C310.024 40.2273 293.599 56.5909 293.599 78.0682C293.599 99.2046 310.024 115.909 329.186 115.909C338.426 115.909 345.612 111.818 349.376 107.386H350.06V112.841C350.06 127.159 342.19 135 329.871 135C319.605 135 313.446 127.841 310.708 121.364L296.336 127.5C300.443 137.386 311.735 150 330.213 150C349.718 150 366.485 138.409 366.485 110.455V42.2727H350.744V48.75H350.06ZM330.897 101.25C319.263 101.25 310.708 91.3637 310.708 78.4091C310.708 65.1137 319.605 55.5682 330.897 55.5682C342.19 55.5682 351.087 65.4546 351.087 78.75C351.429 91.7046 342.532 101.25 330.897 101.25Z" fill="#4285F4"/>
<path d="M248.088 40.2273C227.214 40.2273 209.762 56.25 209.762 78.0682C209.762 99.8864 226.872 115.909 248.088 115.909C269.303 115.909 286.413 100.227 286.413 78.4091C286.413 56.25 269.303 40.2273 248.088 40.2273ZM248.088 101.25C236.453 101.25 226.53 91.7046 226.53 78.4091C226.53 64.7727 236.453 55.5682 248.088 55.5682C259.722 55.5682 269.646 64.7727 269.646 78.4091C269.646 91.7046 259.722 101.25 248.088 101.25Z" fill="#FBBC05"/>
<path d="M379.146 1.70459H395.571V116.25H379.146V1.70459Z" fill="#34A853"/>
<path d="M446.215 101.25C437.661 101.25 431.843 97.5 427.737 89.6591L478.723 68.8637L477.013 64.4318C473.933 55.9091 464.009 40.2273 444.504 40.2273C425 40.2273 408.575 55.5682 408.575 78.0682C408.575 99.2046 424.657 115.909 446.215 115.909C463.667 115.909 473.591 105.341 478.039 99.2046L465.036 90.6818C460.587 97.1591 454.77 101.25 446.215 101.25ZM445.189 54.5455C452.033 54.5455 457.85 57.9546 459.561 62.7273L425.342 77.0455C425 61.3637 436.634 54.5455 445.189 54.5455Z" fill="#EA4335"/>
</g>
<defs>
<clipPath id="clip0_6_142">
<rect width="478.723" height="150" fill="white"/>
</clipPath>
</defs>
</svg>
