<svg width="655" height="150" viewBox="0 0 655 150" fill="none" xmlns="http://www.w3.org/2000/svg">
<path d="M85.5714 55.2857H124.857V124.857H0V55.2857H39.2857V90H85.4286V55.2857H85.5714ZM218.429 90.8571C218.429 102.714 210.714 109.571 200 109.571C189.571 109.571 181.714 102.571 181.714 90.8571V34.8571H164.286V90.7143C164.286 112.714 180 126.714 200.143 126.714C220.429 126.714 236 112.714 236 90.7143V34.8571H218.571V90.8571H218.429ZM280.857 60.7143C274.143 60.7143 266.714 63.5714 262.857 70.1429V62.4286H246.571V124.857H263.429V88.8571C263.429 81.5714 267.714 75.8571 275.143 75.8571C283.286 75.8571 286.714 81.2857 286.714 88.2857V124.714H303.571V85.4286C303.429 71.7143 296.286 60.7143 280.857 60.7143ZM342.714 87C342.714 87 337 85.8571 333.429 85.1429C329.857 84.4286 327.714 82.5714 327.714 79.5714C327.714 76 330.857 73.4286 335.286 73.4286C341.571 73.4286 344 76.5714 344.571 80.4286H359.143C359 71.8571 352.286 60.7143 335.571 60.7143C322.143 60.7143 312.286 70 312.286 81.1429C312.286 89.8571 317.714 97.1429 329.714 99.7143L338.286 101.571C343.143 102.571 345 104.857 345 107.714C345 111 342 113.857 336.429 113.857C329.714 113.857 326 110 325.143 105.571H310.143C311 114.857 317.714 126.714 336.571 126.714C352.857 126.714 361.143 116.286 361.143 106.143C361.286 97 355 89.5714 342.714 87ZM433 93.4286C433 112.286 421.143 126.286 403.571 126.286C395 126.286 388.571 122.857 385.571 118.714V148.857H368.714V62.4286H385V70.1429C387.857 65.2857 394.714 61 404.143 61C422.429 61 433 75 433 93.4286ZM416.429 93.5714C416.429 82.5714 409.571 76.1429 401 76.1429C392.429 76.1429 385.429 82.5714 385.429 93.5714C385.429 104.571 392.429 111.143 401 111.143C409.571 111.143 416.429 104.714 416.429 93.5714ZM513.571 62.4286H529.857V124.857H513V117.143C510.143 122.143 503.571 126.286 495 126.286C477.429 126.286 465.571 112.286 465.571 93.4286C465.571 74.8571 476.143 61 494.286 61C503.714 61 510.429 65.2857 513.429 70.1429V62.4286H513.571ZM513.286 93.5714C513.286 82.5714 506.286 76.1429 497.714 76.1429C489.143 76.1429 482.286 82.5714 482.286 93.5714C482.286 104.714 489.143 111.143 497.714 111.143C506.286 111.143 513.286 104.571 513.286 93.5714ZM440.857 124.714H457.714V34.8571H440.857V124.714ZM630 60.7143C624 60.7143 617.143 62.7143 613.143 67.5714V34.8571H596.286V124.714H613.143V88.1429C613.571 81.2857 617.714 76 624.857 76C633 76 636.429 81.4286 636.429 88.4286V124.857H653.286V85.5714C653.143 71.7143 645.857 60.7143 630 60.7143ZM570 87C570 87 564.286 85.8571 560.714 85.1429C557.143 84.4286 555 82.5714 555 79.5714C555 76 558.143 73.4286 562.571 73.4286C568.857 73.4286 571.286 76.5714 571.857 80.4286H586.429C586.286 71.8571 579.571 60.7143 562.857 60.7143C549.429 60.7143 539.571 70 539.571 81.1429C539.571 89.8571 545 97.1429 557 99.7143L565.571 101.571C570.429 102.571 572.286 104.857 572.286 107.714C572.286 111 569.286 113.857 563.714 113.857C557 113.857 553.286 110 552.429 105.571H537.429C538.286 114.857 545 126.714 563.857 126.714C580.143 126.714 588.429 116.286 588.429 106.143C588.571 97 582.286 89.5714 570 87ZM85.5714 0H39.2857V34.8571H85.4286V0H85.5714Z" fill="black"/>
</svg>
