<svg width="786" height="150" viewBox="0 0 786 150" fill="none" xmlns="http://www.w3.org/2000/svg">
<path fill-rule="evenodd" clip-rule="evenodd" d="M702.018 115.174L731.01 76.1706L704.268 39.3179H727.17L742.656 62.3112L758.28 39.3179H781.05L753.912 76.0386L782.502 115.174H760.002L742.392 90.4254L725.316 115.174H702.018Z" fill="black"/>
<path fill-rule="evenodd" clip-rule="evenodd" d="M629.124 78.7614C629.124 103.797 642.798 117.106 667.02 117.106C689.688 117.106 705.054 103.797 705.054 78.7614V76.653C705.054 51.3533 689.424 37.3857 667.02 37.3857C645.144 37.3857 629.124 51.0897 629.124 76.653V78.7614ZM685.314 78.7668C685.314 92.6556 678.39 100.196 667.02 100.196C655.788 100.196 648.864 92.5236 648.864 78.7668V76.9152C648.864 62.1006 656.178 54.2961 667.152 54.2961C678.258 54.2961 685.314 62.6298 685.314 76.9152V78.7668Z" fill="black"/>
<path fill-rule="evenodd" clip-rule="evenodd" d="M562.892 101.3C567.001 111.047 575.216 117.106 587.806 117.106C607.284 117.106 620.01 102.881 620.01 77.592V75.3528C620.01 50.0639 606.492 37.551 588.336 37.4193C576.277 37.4193 567.796 42.8196 563.555 52.6981V13.7109H544.075V115.13H561.302L562.892 101.3ZM600.264 77.7732C600.264 92.8092 593.317 100.196 581.91 100.196C571.028 100.196 563.818 92.0178 563.818 77.7732V76.1904C563.818 63.1332 571.291 54.2959 582.172 54.2959C592.661 54.2959 600.264 61.9458 600.264 75.927V77.7732Z" fill="black"/>
<path fill-rule="evenodd" clip-rule="evenodd" d="M457.512 39.4077V141.264H476.958V103.119C481.059 111.981 489.129 117.403 501.3 117.403C519.291 117.403 533.445 104.309 533.445 79.1802V77.064C533.445 51.4054 520.746 37.3857 501.3 37.3857C488.732 37.3857 480.265 43.8665 476.165 53.6538L474.18 39.4077H457.512ZM513.703 78.6966C513.703 92.6778 506.491 100.196 495.216 100.196C484.335 100.196 477.255 91.7544 477.255 78.3012V76.8498C477.255 62.7372 484.597 54.2961 495.61 54.2961C505.967 54.2961 513.703 61.8144 513.703 76.9818V78.6966Z" fill="black"/>
<path fill-rule="evenodd" clip-rule="evenodd" d="M370.948 78.7614C370.948 103.797 384.754 117.106 408.98 117.106C431.642 117.106 446.881 103.797 446.881 78.7614V76.653C446.881 51.3533 431.381 37.3857 408.98 37.3857C387.098 37.3857 370.948 51.0897 370.948 76.653V78.7614ZM427.138 78.7668C427.138 92.6556 420.084 100.196 408.849 100.196C397.615 100.196 390.691 92.5236 390.691 78.7668V76.9152C390.691 62.1006 398.006 54.2961 408.98 54.2961C420.084 54.2961 427.138 62.6298 427.138 76.9152V78.7668Z" fill="black"/>
<path fill-rule="evenodd" clip-rule="evenodd" d="M317.795 115.174H337.712V80.3268C337.712 64.2234 341.695 58.5479 358.16 58.5479H366.392V38.3525H361.479C347.272 38.3525 339.438 44.5563 336.384 56.6999L333.861 39.3144H317.795V115.174Z" fill="black"/>
<path fill-rule="evenodd" clip-rule="evenodd" d="M229.713 21.4409V115.173H265.876C289.432 115.173 307.166 101.49 307.166 71.2308V64.7838C307.166 34.6558 288.374 21.4409 265.347 21.4409H229.713ZM249.456 38.3513H264.521C278.127 38.3513 287.423 46.9478 287.423 65.8602V70.7538C287.423 89.6658 278.397 98.2626 265.195 98.2626H249.456V38.3513Z" fill="black"/>
<path d="M46.2046 1.92188L2.87109 29.4799L46.2046 57.038L89.5452 29.4799L132.879 57.038L176.212 29.4799L132.879 1.92188L89.5452 29.4799L46.2046 1.92188Z" fill="#0056FE"/>
<path d="M46.2046 112.155L2.87109 84.5964L46.2046 57.0381L89.5452 84.5964L46.2046 112.155Z" fill="#0056FE"/>
<path d="M89.5459 84.5964L132.88 57.0381L176.213 84.5964L132.88 112.155L89.5459 84.5964Z" fill="#0056FE"/>
<path d="M89.5446 148.898L46.2041 121.34L89.5446 93.7823L132.878 121.34L89.5446 148.898Z" fill="#0056FE"/>
</svg>
